<svg class="brand-logo-icon" viewBox="0 0 100 100" overflow="visible" fill="none" xmlns="http://www.w3.org/2000/svg">
  <defs>
    <linearGradient id="brandGoldLuxury" x1="0%" y1="0%" x2="100%" y2="100%">
      <stop offset="0%" stop-color="#FFFDF7"/>
      <stop offset="25%" stop-color="#FDE68A"/>
      <stop offset="60%" stop-color="#F59E0B"/>
      <stop offset="100%" stop-color="#B45309"/>
    </linearGradient>
    <radialGradient id="brandHaloLuxury" cx="50%" cy="50%" r="50%">
      <stop offset="0%" stop-color="rgba(245, 158, 11, 0.45)"/>
      <stop offset="70%" stop-color="rgba(139, 92, 246, 0.18)"/>
      <stop offset="100%" stop-color="transparent"/>
    </radialGradient>
  </defs>
  <circle cx="50" cy="50" r="46" fill="url(#brandHaloLuxury)"/>
  <circle cx="50" cy="50" r="44" stroke="url(#brandGoldLuxury)" stroke-width="1.2" stroke-dasharray="2 3" opacity="0.65"/>
  <ellipse cx="50" cy="52" rx="42" ry="18" transform="rotate(-20 50 52)" stroke="url(#brandGoldLuxury)" stroke-width="1" opacity="0.45"/>
  <path d="M 36 86 C 28 80, 20 68, 20 55 C 20 48, 25 45, 29 49 C 32 52, 34 56, 35 59 L 35 30 C 35 25, 40 25, 40 30 L 41 48 L 42 18 C 42 13, 48 13, 48 18 L 49 46 L 51 24 C 51 19, 57 19, 57 24 L 57 48 L 59 34 C 59 30, 65 30, 65 34 L 65 58 C 65 72, 54 86, 36 86 Z" stroke="url(#brandGoldLuxury)" stroke-width="2.2" stroke-linejoin="round" stroke-linecap="round"/>
  <path d="M 33 55 C 38 64, 44 72, 48 82" stroke="url(#brandGoldLuxury)" stroke-width="1.5" stroke-linecap="round" opacity="0.85"/>
  <path d="M 33 55 C 44 60, 54 64, 62 67" stroke="url(#brandGoldLuxury)" stroke-width="1.5" stroke-linecap="round" opacity="0.85"/>
  <path d="M 64 48 C 55 46, 44 47, 36 41" stroke="url(#brandGoldLuxury)" stroke-width="1.5" stroke-linecap="round" opacity="0.85"/>
  <g transform="translate(48, 56)">
    <path d="M 0 -8 Q 0 0 8 0 Q 0 0 0 8 Q 0 0 -8 0 Q 0 0 0 -8 Z" fill="url(#brandGoldLuxury)"/>
    <circle cx="0" cy="0" r="2" fill="#070614"/>
    <circle cx="0" cy="0" r="1" fill="#FFFDF7"/>
  </g>
  <circle cx="42" cy="18" r="1.8" fill="#FFFDF7"/>
  <circle cx="48" cy="18" r="1.8" fill="#FFFDF7"/>
  <circle cx="57" cy="24" r="1.8" fill="#FFFDF7"/>
  <path d="M 80 18 L 81.5 14.5 L 85 13 L 81.5 11.5 L 80 8 L 78.5 11.5 L 75 13 L 78.5 14.5 Z" fill="url(#brandGoldLuxury)"/>
</svg>
